<svg xmlns="http://www.w3.org/2000/svg" width="335" height="19.844" viewBox="0 0 335 19.844">
  <g id="nav-logo" transform="translate(-175.982 -292.819)">
    <path id="Path_6" data-name="Path 6" d="M430.969,293.6l-1.081.164v18.308l1.081-.141Z" transform="translate(-61.025 -0.187)" fill="#231f20"/>
    <path id="Path_7" data-name="Path 7" d="M443.682,312.069l1.106-.142V296.594l13.348,15.268V293.594l-1.119.167v15.363l-13.336-15.217Z" transform="translate(-64.34 -0.186)" fill="#231f20"/>
    <path id="Path_8" data-name="Path 8" d="M481.873,304.31a4.461,4.461,0,0,0-2.194-1.677q-.432-.164-1.31-.428a7.348,7.348,0,0,1-2.653-1.184,3.465,3.465,0,0,1-.956-1.283,4.028,4.028,0,0,1-.325-1.619,3.934,3.934,0,0,1,1.038-2.771,3.456,3.456,0,0,1,2.63-1.123,4.22,4.22,0,0,1,2.057.529,5.8,5.8,0,0,1,1.534,1.266l.691-.712a5.312,5.312,0,0,0-1.69-1.383,5.091,5.091,0,0,0-2.365-.572,4.8,4.8,0,0,0-3.575,1.483,4.927,4.927,0,0,0-1.464,3.63,4.462,4.462,0,0,0,.76,2.63,4.225,4.225,0,0,0,2.2,1.55l.818.269a9.107,9.107,0,0,1,3.343,1.572,3.79,3.79,0,0,1,.821,1.242,4.026,4.026,0,0,1,.277,1.512,3.963,3.963,0,0,1-1.114,2.868,3.772,3.772,0,0,1-2.805,1.143,3.935,3.935,0,0,1-2.256-.675,5.284,5.284,0,0,1-1.487-1.628l-.861.79a5.839,5.839,0,0,0,1.882,1.809,5.211,5.211,0,0,0,2.671.7,4.83,4.83,0,0,0,3.617-1.5,5.027,5.027,0,0,0,1.471-3.689A4.868,4.868,0,0,0,481.873,304.31Z" transform="translate(-71.383 -0.128)" fill="#231f20"/>
    <path id="Path_9" data-name="Path 9" d="M505.564,293.876h-11l-.257,1h5.18v17.26l1.081-.141V294.876h5.078Z" transform="translate(-76.508 -0.254)" fill="#231f20"/>
    <path id="Path_10" data-name="Path 10" d="M519.714,293.6l-1.081.164v18.308l1.081-.141Z" transform="translate(-82.355 -0.187)" fill="#231f20"/>
    <path id="Path_11" data-name="Path 11" d="M540.47,293.876h-11l-.257,1h5.18v17.26l1.081-.141V294.876h5.078Z" transform="translate(-84.897 -0.254)" fill="#231f20"/>
    <path id="Path_12" data-name="Path 12" d="M563.267,310.769a5.509,5.509,0,0,1-2.5.566,4.757,4.757,0,0,1-4.039-1.708,8.663,8.663,0,0,1-1.254-5.188V293.6l-1.143.165v11.178a14.094,14.094,0,0,0,.277,3.28,5.3,5.3,0,0,0,.9,1.86,5.171,5.171,0,0,0,2.082,1.659,7.31,7.31,0,0,0,2.981.571,6.116,6.116,0,0,0,2.979-.692,5.016,5.016,0,0,0,1.989-2.046l.682-1.254v3.592l1.024-.075V293.6l-1.117.163v10.576a14.817,14.817,0,0,1-.224,2.975,5.439,5.439,0,0,1-.767,1.838A5.01,5.01,0,0,1,563.267,310.769Z" transform="translate(-90.934 -0.187)" fill="#231f20"/>
    <path id="Path_13" data-name="Path 13" d="M591.287,293.876h-11l-.257,1h5.18v17.26l1.082-.141V294.876h5.077Z" transform="translate(-97.111 -0.254)" fill="#231f20"/>
    <path id="Path_14" data-name="Path 14" d="M606.479,310.928v-7.853h6.1V302.1h-6.1v-7.276h7.15l-.259-.948h-8v18.077H613.8l.387-1.025Z" transform="translate(-103.202 -0.254)" fill="#231f20"/>
    <g id="Group_50" data-name="Group 50" transform="translate(175.982 292.819)">
      <path id="Path_15" data-name="Path 15" d="M185.633,312.34c-6.507,0-9.651-4.979-9.651-9.869,0-4.847,3.014-9.651,8.908-9.651a12.165,12.165,0,0,1,5.634,1.441,1.687,1.687,0,0,0,.786.131c.567,0,.524.087.7.83l.83,3.8a1.278,1.278,0,0,1,.087.392c0,.263-.131.393-.3.393s-.349-.305-.7-1.266a7.147,7.147,0,0,0-7.292-5.065c-3.931,0-5.546,3.974-5.546,8.21,0,4.8,2.182,9.913,6.987,9.958a4.85,4.85,0,0,0,4.279-2.795c.524-1.18.874-1.573,1.572-1.573.743,0,1.136.567,1.136,1.4C193.058,309.895,190.83,312.34,185.633,312.34Z" transform="translate(-175.982 -292.819)" fill="#231f20"/>
      <path id="Path_16" data-name="Path 16" d="M221.9,312.012l-3.407-.131-2.882.087c-.7,0-.786-.087-.786-.393,0-.261.262-.393.742-.393,1.31,0,1.922-.7,1.922-1.615V306.9c0-2.315-1.266-4.017-4.717-4.017h-2.227c-.567,0-.7.131-.7.654v6.725c0,.786.174.961,1.921.961.437,0,.7.175.7.349s-.349.567-1.048.523l-3.756-.174-2.925.174c-.349,0-.524-.174-.524-.436,0-.175.087-.349.261-.349l1.791-.175c.786-.087.96-.261.96-2.183V295.286c0-.785-.611-1-1.834-1h-.524c-.437,0-.655-.131-.655-.349,0-.175.349-.481,1.048-.481H214c5.066,0,5.546,2.708,5.546,4.149,0,1.878-1.441,3.319-3.363,4.018l-1.878.7c4.761.437,5.983,3.145,5.983,5.372v2.227c0,.218.087,1.178.612,1.266l1,.176a.347.347,0,0,1,.3.393C222.206,311.968,222.119,312.012,221.9,312.012Zm-10.394-17.818c-1.092,0-1.659.261-1.659,1v6.595a1.893,1.893,0,0,0,1.266.349l1.7-.044a4.112,4.112,0,0,0,3.842-3.975C216.659,295.941,214.914,294.194,211.507,294.194Z" transform="translate(-182.767 -292.971)" fill="#231f20"/>
      <path id="Path_17" data-name="Path 17" d="M241.286,294.107h-.741c-1.31,0-1.878.612-1.878,2.4V309.7c0,.83.305,1.266,1,1.4l1.135.22c.263.043.219.261.219.349,0,.219-.087.305-.349.305h-7.293c-.087,0-.131-.174-.131-.349,0-.218.043-.3.175-.3h.741c1.31,0,1.878-.612,1.878-2.4V295.853c0-.961-.261-1.4-.96-1.528l-1.179-.218a.444.444,0,0,1-.219-.349c0-.219.087-.306.349-.306h7.293c.087,0,.131.176.131.35C241.461,294.018,241.418,294.107,241.286,294.107Z" transform="translate(-189.746 -292.971)" fill="#231f20"/>
      <path id="Path_18" data-name="Path 18" d="M268.58,298.331a.576.576,0,0,1-.393-.263l-.349-.654-1.572-2.184c-.656-.917-.917-1.048-1.746-1.048l-3.406.087c-.349,0-.524.131-.524.524v13.32c0,2.839.262,3.057,2.314,3.057.656,0,.83.088.83.262l-.043.393c0,.131-.349.087-.655.087h-7.38c-.35,0-.7.087-.7-.087v-.35c0-.174.175-.217.786-.261a6.563,6.563,0,0,0,1.747-.262,3.629,3.629,0,0,0,.481-1.747v-13.8c0-.961-.22-1.18-.961-1.18h-2.1c-1.441,0-2.271.131-2.489.48l-2.489,3.668a.242.242,0,0,1-.219.087c-.174,0-.305-.174-.305-.393,0-.3.131-.611.305-2.358.219-1.964.437-2.358,1.092-2.358,1.572,0,2.1.175,2.925.175l4.847.043c1.747,0,8.21-.349,8.953-.349.48,0,.612.174.7.786l.218,1.484a10.884,10.884,0,0,0,.349,1.747,1.385,1.385,0,0,1,.087.567C268.886,298.156,268.8,298.331,268.58,298.331Z" transform="translate(-193.63 -292.916)" fill="#231f20"/>
      <path id="Path_19" data-name="Path 19" d="M295.773,310.4a.9.9,0,0,1-.087.481c-.131.217-2.577,1.4-6.289,1.4a7.233,7.233,0,0,1-7.337-7.163V295.024c0-.263-.305-.612-.874-.7l-1.4-.174c-.392-.044-.48-.306-.48-.437s.045-.263.175-.263H292.06a10.055,10.055,0,0,1,2.708.219,6.6,6.6,0,0,1,.655,2.1l.262,1.441a1.365,1.365,0,0,1,.043.437c0,.349-.043.48-.175.48a1.363,1.363,0,0,1-.83-.567l-.7-1.048c-1.31-1.878-2.14-2.315-3.493-2.271l-5.242.087c-.524,0-.611.481-.611,1v6.246h6.42a.809.809,0,0,1,.785.829c0,.175-.175.612-.437.612l-5.546.261c-.743.043-1.18.393-1.18.874v1.31c0,4.018,1.441,6.07,5.2,6.07a5.082,5.082,0,0,0,4.279-2.751l1.006-2.053c.218-.437.261-.48.48-.48.305,0,.392.131.392.567Z" transform="translate(-200.816 -292.971)" fill="#231f20"/>
      <path id="Path_20" data-name="Path 20" d="M326.205,312.012l-3.407-.131-2.882.087c-.7,0-.786-.087-.786-.393,0-.261.262-.393.743-.393,1.31,0,1.921-.7,1.921-1.615V306.9c0-2.315-1.266-4.017-4.717-4.017H314.85c-.567,0-.7.131-.7.654v6.725c0,.786.175.961,1.921.961.437,0,.7.175.7.349s-.349.567-1.048.523l-3.756-.174-2.925.174c-.349,0-.524-.174-.524-.436,0-.175.087-.349.262-.349l1.791-.175c.786-.087.96-.261.96-2.183V295.286c0-.785-.611-1-1.834-1h-.524c-.437,0-.655-.131-.655-.349,0-.175.349-.481,1.048-.481H318.3c5.065,0,5.546,2.708,5.546,4.149,0,1.878-1.441,3.319-3.364,4.018l-1.878.7c4.761.437,5.983,3.145,5.983,5.372v2.227c0,.218.087,1.178.612,1.266l1,.176a.347.347,0,0,1,.3.393C326.51,311.968,326.423,312.012,326.205,312.012Zm-10.394-17.818c-1.092,0-1.659.261-1.659,1v6.595a1.894,1.894,0,0,0,1.267.349l1.7-.044a4.112,4.112,0,0,0,3.842-3.975C320.963,295.941,319.218,294.194,315.811,294.194Z" transform="translate(-207.836 -292.971)" fill="#231f20"/>
      <path id="Path_21" data-name="Path 21" d="M345.591,294.107h-.742c-1.31,0-1.878.612-1.878,2.4V309.7c0,.83.305,1.266,1,1.4l1.135.22c.263.043.219.261.219.349,0,.219-.087.305-.349.305h-7.293c-.087,0-.131-.174-.131-.349,0-.218.044-.3.176-.3h.742c1.31,0,1.877-.612,1.877-2.4V295.853c0-.961-.261-1.4-.96-1.528l-1.179-.218a.444.444,0,0,1-.219-.349c0-.219.087-.306.349-.306h7.293c.087,0,.131.176.131.35C345.765,294.018,345.722,294.107,345.591,294.107Z" transform="translate(-214.815 -292.971)" fill="#231f20"/>
      <path id="Path_22" data-name="Path 22" d="M365.243,312.251c-4.979,0-9.345-4.542-9.345-9.739a9.283,9.283,0,1,1,18.56,0C374.458,307.665,370.178,312.251,365.243,312.251Zm0-18.56c-3.756,0-5.983,3.406-5.983,9.039,0,5.2,2.14,8.69,5.939,8.69,3.756,0,5.9-3.493,5.9-8.69C371.1,297.1,368.868,293.691,365.243,293.691Z" transform="translate(-219.224 -292.86)" fill="#231f20"/>
      <path id="Path_23" data-name="Path 23" d="M407.817,293.975c0,.043-.131.088-.262.088l-1.484.218c-.917.174-1.18.262-1.18,1.615v14.674c0,1.135.087,1.528.087,1.747,0,.785-.524.48-.785.174l-12.4-15.722-.174.918v12.1c0,1.092.96,1.354,2.532,1.485.524.044.655.131.655.436,0,.219-.043.262-.218.262h-6.42c-.48,0-.7-.043-.654-.174l.087-.349c0-.044.131-.087.262-.087l1.485-.219c.917-.175,1.179-.261,1.179-1.616V299.129c0-4.018-.874-5.022-2.315-5.022h-.742c-.131,0-.175-.088-.175-.305,0-.175.043-.35.087-.35h5.416l10.918,14.15.087-.961V295.635c0-1.092-.961-1.354-2.533-1.484-.524-.044-.655-.132-.655-.437,0-.219.043-.263.218-.263h6.42c.48,0,.7.044.654.176Z" transform="translate(-226.769 -292.971)" fill="#231f20"/>
    </g>
  </g>
</svg>
